<svg width="100" height="100" viewBox="0 0 100 100" fill="none" xmlns="http://www.w3.org/2000/svg">
<rect width="100" height="100" fill="white" fill-opacity="0.43"/>
<path d="M59 53C59.5523 53 60 53.4477 60 54C60 54.5128 59.614 54.9355 59.1166 54.9933L59 55H41C40.4477 55 40 54.5523 40 54C40 53.4872 40.386 53.0645 40.8834 53.0067L41 53H59ZM59 46C59.5523 46 60 46.4477 60 47C60 47.5128 59.614 47.9355 59.1166 47.9933L59 48H41C40.4477 48 40 47.5523 40 47C40 46.4872 40.386 46.0645 40.8834 46.0067L41 46H59ZM59 39C59.5523 39 60 39.4477 60 40C60 40.5128 59.614 40.9355 59.1166 40.9933L59 41H41C40.4477 41 40 40.5523 40 40C40 39.4872 40.386 39.0645 40.8834 39.0067L41 39H59Z" fill="white"/>
</svg>
